<svg xmlns="http://www.w3.org/2000/svg" width="270" height="270" viewBox="0 0 270 270" fill="none">
<path d="M63.5318 230.845C64.8262 230.845 65.8432 229.828 65.8432 228.534V41.4038C65.8432 40.1095 64.8262 39.0925 63.5318 39.0925H12.3114C11.017 39.0925 10 40.1095 10 41.4038V193.493C10 193.493 10 233.342 63.5318 230.845ZM129.822 39H78.6021C77.3077 39 76.2907 40.017 76.2907 41.3114V41.4038V193.308V228.442C76.2907 229.736 77.3077 230.753 78.6021 230.753H129.822C131.117 230.753 132.134 229.736 132.134 228.442V228.349V76.4445V41.3114C132.226 40.017 131.117 39 129.822 39ZM144.985 114.166C143.691 114.166 142.674 115.183 142.674 116.478V228.164C142.674 229.459 143.691 230.476 144.985 230.476H196.206C197.5 230.476 198.517 229.459 198.517 228.164V151.426C198.517 151.518 198.517 111.578 144.985 114.166ZM222.093 114.721C261.849 120.638 259.63 152.998 260 155.494V156.234C260 157.713 258.798 158.822 257.411 158.822H210.814C209.797 158.822 208.965 157.99 208.872 156.973C207.855 143.29 208.41 131.548 190.566 117.125C190.473 117.125 190.473 117.033 190.381 116.94C189.364 115.923 190.104 114.259 191.49 114.166C195.928 114.074 212.478 113.334 222.093 114.721Z" fill="rgba(0,0,0,0.5)"/>
</svg>